<svg width="1024" height="1024" viewBox="0 0 1024 1024" fill="none" xmlns="http://www.w3.org/2000/svg">
<path d="M475.415 46.7394C478.505 45.9272 486.557 45.9726 489.918 46.0244C609.607 47.8756 717.391 120.168 760.512 232.981C786.016 299.702 787.259 375.466 759.113 441.475L598.146 441.421C611.585 423.413 622.191 406.871 628.58 385.229C639.765 347.34 637.856 305.148 618.623 270.177C599.182 234.828 568.83 207.222 529.971 195.642C491.259 184.17 449.579 188.657 414.178 208.11C378.498 227.926 356.39 260.249 345.271 299.134C326.419 370.373 360.684 439.52 425.564 472.413C443.813 481.665 462.458 485.605 482.573 488.188C444.692 527.356 405.165 564.723 367.56 603.586C345.913 595.957 315.667 575.387 298.429 560.459C239.877 510.287 203.692 438.79 197.885 361.795C191.975 281.297 215.668 207.388 268.827 146.216C324.456 82.203 392.411 52.6925 475.415 46.7394Z" fill="white"/>
<path d="M599.728 481.69C657.856 483.212 708.463 503.811 750.261 544.665C798.358 591.367 825.948 655.23 826.973 722.238C827.964 789.499 801.884 854.339 754.591 902.21C723.506 933.423 679.819 961.053 636.743 971.226C598.892 980.168 544.519 977.283 504.135 977.272L347.154 977.229C347.549 947.524 346.632 916.201 346.656 886.173L347.627 760.348C347.577 730.162 342.605 691.19 368.332 669.901C374.658 664.673 382.145 661.034 390.168 659.291C401.907 656.775 467.572 658.129 480.382 659.512L480.576 835.474C513.86 834.534 548.092 836.958 581.134 835.31C634.982 832.627 679.388 782.817 680.998 730.216C681.988 700.108 671.007 670.83 650.457 648.788C637.412 635.097 620.91 625.18 602.693 620.082C581.639 614.233 546.343 615.305 523.24 615.02C487.183 614.819 451.126 614.405 415.073 613.773C434.397 593.116 456.392 572.269 475.96 552.088C517.855 508.882 535.165 485.246 599.728 481.69Z" fill="white"/>
</svg>
